<?xml version="1.0" encoding="utf-8" ?>
<svg xmlns="http://www.w3.org/2000/svg" xmlns:xlink="http://www.w3.org/1999/xlink" width="436" height="436">
	<path fill="#007CF7" transform="scale(0.42586 0.42586)" d="M-0 -0L1024 0L1024 1024L-0 1024L0 -0Z"/>
	<path fill="#06A0F6" transform="scale(0.42586 0.42586)" d="M576.095 848.006L591.857 848.006L591.998 863.995L575.986 864.009L576.095 848.006Z"/>
	<path fill="#010203" transform="scale(0.42586 0.42586)" d="M720.007 495.999L735.98 496.002L736.007 512.001L720.027 511.988L720.007 495.999Z"/>
	<path fill="#010203" transform="scale(0.42586 0.42586)" d="M672.005 208.003L687.981 208L688.006 224.002L672.05 223.97L672.005 208.003Z"/>
	<path fill="#010203" transform="scale(0.42586 0.42586)" d="M704.006 479.997L719.986 479.991L720.007 495.999L704.035 495.988L704.006 479.997Z"/>
	<path fill="#010203" transform="scale(0.42586 0.42586)" d="M688.006 224.002L703.983 224L704.004 240.004L688.033 240.002L688.006 224.002Z"/>
	<path fill="#010203" transform="scale(0.42586 0.42586)" d="M656.005 192L671.981 191.994L672.005 208.003L656.029 207.998L656.005 192Z"/>
	<path fill="#010203" transform="scale(0.42586 0.42586)" d="M704.004 240.004L719.981 240.002L720.005 256.005L704.025 256.002L704.004 240.004Z"/>
	<path fill="#06A0F6" transform="scale(0.42586 0.42586)" d="M688.011 799.897L687.973 783.98L703.97 783.987L703.988 800.001C698.823 800.006 693.116 800.454 688.011 799.897Z"/>
	<path fill="#010203" transform="scale(0.42586 0.42586)" d="M688.009 463.996L703.991 463.992L704.006 479.997L688.024 479.986L688.009 463.996Z"/>
	<path fill="#010203" transform="scale(0.42586 0.42586)" d="M287.991 736.013L303.982 736.047L303.982 752.024L288.01 752.016L287.991 736.013Z"/>
	<path fill="#010203" transform="scale(0.42586 0.42586)" d="M351.99 544.015L367.946 544.056L367.988 560.017L352.016 560.011L351.99 544.015Z"/>
	<path fill="#010203" transform="scale(0.42586 0.42586)" d="M672.01 447.995L688.001 447.989L688.009 463.996C683.104 464.02 676.851 464.805 672.131 463.666L672.01 447.995Z"/>
	<path fill="#06A0F6" transform="scale(0.42586 0.42586)" d="M672.022 815.976L687.993 816.033L687.989 832.012L655.979 832.004L655.97 815.979L672.022 815.976Z"/>
	<path fill="#06A0F6" transform="scale(0.42586 0.42586)" d="M399.979 848.003L447.954 848.005L447.995 864.012L399.983 864.02L399.979 848.003Z"/>
	<path fill="#06A0F6" transform="scale(0.42586 0.42586)" d="M608.079 848.003L656.003 848.017L655.987 863.993L607.985 864.022L608.079 848.003Z"/>
	<path fill="#010203" transform="scale(0.42586 0.42586)" d="M672.054 768.047L719.966 768.043L720.014 784.045L703.97 783.987L687.973 783.98L688.011 799.897L687.993 816.033L672.022 815.976L672.054 768.047Z"/>
	<path fill="#17C2F6" transform="scale(0.42586 0.42586)" d="M736.024 415.977L752.007 416.023L751.997 431.99L672.014 431.981L656.013 431.99L655.985 415.972L736.024 415.977Z"/>
	<path fill="#010203" transform="scale(0.42586 0.42586)" d="M272.024 464.004L287.991 464.009L288.025 479.986L304.011 479.988L319.903 479.994L319.938 496.055L320.004 512.014L336.003 512L335.989 528.015L304.013 528.015L303.997 512.032L288.01 512.014L287.996 496.035L272.013 496.015L272.024 464.004Z"/>
	<path fill="#002E91" transform="scale(0.42586 0.42586)" d="M304.011 479.988L319.903 479.994L319.938 496.055L304.012 496.005L304.011 479.988Z"/>
	<path fill="#010203" transform="scale(0.42586 0.42586)" d="M368.033 224.026L368.004 175.994L479.991 176.006L480.013 192.001L383.992 191.998L384.013 224.001L368.033 224.026Z"/>
	<path fill="#010203" transform="scale(0.42586 0.42586)" d="M736.006 272.007L751.98 272.012L752.007 416.023L736.024 415.977L736.008 399.996L735.999 384.039L736.006 272.007Z"/>
	<path fill="#010203" transform="scale(0.42586 0.42586)" d="M496.003 175.993L655.983 175.997L656.005 192L640.001 191.99L496.014 192.005L496.003 175.993Z"/>
	<path fill="#010203" transform="scale(0.42586 0.42586)" d="M272.014 319.997L271.998 255.989L320.002 256.024L320.002 223.992L368.033 224.026L368.013 240.001L335.999 240.007L336.016 272.002L287.997 272.008L288.013 319.999L272.014 319.997Z"/>
	<path fill="#010203" transform="scale(0.42586 0.42586)" d="M736.007 512.001L751.978 512.006L752.021 752.054L719.98 751.999L719.998 735.99L719.999 720.001L736.014 720.058L736.007 512.001Z"/>
	<path fill="#0105BB" transform="scale(0.42586 0.42586)" d="M719.999 720.001L736.014 720.058L736.004 736.002L719.998 735.99L719.999 720.001Z"/>
	<path fill="#010203" transform="scale(0.42586 0.42586)" d="M399.988 592.018L415.979 592.005L415.985 608.041L431.978 607.975L432.014 623.99L415.999 624.003L287.998 624.002L288.002 720.004L287.991 736.013L272.295 736.013C271.624 734.964 272.013 731.309 272.013 729.95L272.007 607.996L400.009 608.036L399.988 592.018Z"/>
	<path fill="#010203" transform="scale(0.42586 0.42586)" d="M640.307 815.986L655.97 815.979L655.979 832.004L656.003 848.017L608.079 848.003L591.857 848.006L576.095 848.006L447.954 848.005L399.979 848.003L384.011 848.017L383.988 832.015L640.04 832.05C640.022 827.159 639.54 821.756 640.173 816.927L640.307 815.986Z"/>
	<path fill="#003CF9" transform="scale(0.42586 0.42586)" d="M640.001 191.99L656.005 192L656.029 207.998L672.005 208.003L672.05 223.97L688.006 224.002L688.033 240.002L704.004 240.004L704.025 256.002L720.005 256.005L735.981 256.003L736.006 272.007L735.999 384.039L720.028 383.983L720.003 368.002L704.006 367.993L704.003 351.989L688.001 351.995L688.019 335.987L672.011 336.034L672.008 224.004L640.015 224.009L640.001 191.99Z"/>
	<path fill="#010203" transform="scale(0.42586 0.42586)" d="M720.005 256.005L735.981 256.003L736.006 272.007L720.023 272.001L720.005 256.005Z"/>
	<path fill="#002E91" transform="scale(0.42586 0.42586)" d="M592.018 735.928L639.998 736.002L639.96 752.051L656 751.996L655.978 768.041L672.054 768.047L672.022 815.976L655.97 815.979L640.307 815.986L640.173 816.927C639.54 821.756 640.022 827.159 640.04 832.05L383.988 832.015L368.013 832.015L367.987 816.019L352.012 816.017L351.987 800.017L336.014 800.015L335.985 784.021L320.011 784.015L319.984 768.02L304.01 768.015L303.982 752.024L303.982 736.047L367.974 736.067L367.955 768.047L384.007 768.019L399.985 768.007L431.923 768.006L464.035 768.009L543.896 768.008L560.109 768.009L576.014 768.006L591.948 767.971L592.01 752.029L592.018 735.928Z"/>
	<path fill="#010203" transform="scale(0.42586 0.42586)" d="M303.982 752.024L319.984 752.011L319.984 768.02L304.01 768.015L303.982 752.024Z"/>
	<path fill="#010203" transform="scale(0.42586 0.42586)" d="M319.984 768.02L335.984 768.006L335.985 784.021L320.011 784.015L319.984 768.02Z"/>
	<path fill="#010203" transform="scale(0.42586 0.42586)" d="M335.985 784.021L351.996 784.008L351.987 800.017L336.014 800.015L335.985 784.021Z"/>
	<path fill="#010203" transform="scale(0.42586 0.42586)" d="M367.987 816.019L383.99 815.992L383.988 832.015L368.013 832.015L367.987 816.019Z"/>
	<path fill="#010203" transform="scale(0.42586 0.42586)" d="M351.987 800.017L367.997 799.994L367.987 816.019L352.012 816.017L351.987 800.017Z"/>
	<path fill="#0105BB" transform="scale(0.42586 0.42586)" d="M543.896 768.008L560.109 768.009C559.362 772.872 560.051 779.049 560.045 784.043L543.981 784.045L543.896 768.008Z"/>
	<path fill="#0105BB" transform="scale(0.42586 0.42586)" d="M623.985 800.006L640.034 799.945L639.981 815.843C635.055 816.622 628.997 816.069 623.953 816.09L623.985 800.006Z"/>
	<path fill="#0105BB" transform="scale(0.42586 0.42586)" d="M607.996 784.001L624.041 783.93L623.985 800.006L607.96 800.062L607.996 784.001Z"/>
	<path fill="#0105BB" transform="scale(0.42586 0.42586)" d="M591.948 767.971L608.066 767.932L607.996 784.001L591.955 784.063L591.948 767.971Z"/>
	<path fill="#0105BB" transform="scale(0.42586 0.42586)" d="M431.923 768.006L464.035 768.009L464.008 784.039L432 784.037L431.923 768.006Z"/>
	<path fill="#FEFEFE" transform="scale(0.42586 0.42586)" d="M479.991 176.006L496.003 175.993L496.014 192.005L640.001 191.99L640.015 224.009L672.008 224.004L672.011 336.034L688.019 335.987L688.001 351.995L704.003 351.989L704.006 367.993L720.003 368.002L720.028 383.983L735.999 384.039L736.008 399.996L736.024 415.977L655.985 415.972L656.013 431.99L672.014 431.981L672.01 447.995L672.131 463.666C676.851 464.805 683.104 464.02 688.009 463.996L688.024 479.986L704.006 479.997L704.035 495.988L720.007 495.999L720.027 511.988L736.007 512.001L736.014 720.058L719.999 720.001L719.998 735.99L719.98 751.999L719.966 768.043L672.054 768.047L655.978 768.041L656 751.996L639.96 752.051L639.998 736.002L592.018 735.928L592.01 752.029L591.948 767.971L576.014 768.006L560.109 768.009L543.896 768.008L464.035 768.009L431.923 768.006L399.985 768.007L384.007 768.019L367.955 768.047L367.974 736.067L303.982 736.047L287.991 736.013L288.002 720.004L287.998 624.002L415.999 624.003L432.014 623.99L431.978 607.975L415.985 608.041L415.979 592.005L399.988 592.018L384.02 592.004L383.99 576.016L368.016 576.007L367.988 560.017L367.946 544.056L351.99 544.015L336.011 544.014L335.989 528.015L336.003 512L320.004 512.014L319.938 496.055L319.903 479.994L304.011 479.988L288.025 479.986L287.991 464.009L272.024 464.004L272.014 319.997L288.013 319.999L287.997 272.008L336.016 272.002L335.999 240.007L368.013 240.001L368.033 224.026L384.013 224.001L383.992 191.998L480.013 192.001L479.991 176.006Z"/>
	<path fill="#0105BB" transform="scale(0.42586 0.42586)" d="M415.497 655.994L400.014 656.005L400.008 640.021L416.065 640.008L415.988 651.426C415.974 652.978 416.169 654.556 415.497 655.994Z"/>
	<path fill="#010203" transform="scale(0.42586 0.42586)" d="M528.001 655.994L543.99 656.02L544.016 672.003L528.01 672.005L528.001 655.994Z"/>
	<path fill="#C69EE5" transform="scale(0.42586 0.42586)" d="M576.014 768.006L575.999 752.026L592.01 752.029L591.948 767.971L576.014 768.006Z"/>
	<path fill="#C69EE5" transform="scale(0.42586 0.42586)" d="M384.011 752.018L400 751.999L399.985 768.007L384.007 768.019L384.011 752.018Z"/>
	<path fill="#C69EE5" transform="scale(0.42586 0.42586)" d="M447.984 512.013L464.012 512.001L463.989 528.007L448.01 528.018L447.984 512.013Z"/>
	<path fill="#C69EE5" transform="scale(0.42586 0.42586)" d="M511.985 512.01L528.02 512.001L528.02 522.761C528.022 524.445 527.776 526.366 528.327 527.962L527.968 528.103L512.01 528.019L511.985 512.01Z"/>
	<path fill="#C69EE5" transform="scale(0.42586 0.42586)" d="M399.985 512.01L416.013 512.007L415.999 528.034L400.037 528.011L399.985 512.01Z"/>
	<path fill="#0105BB" transform="scale(0.42586 0.42586)" d="M496.004 528.053L496.011 512.019L511.985 512.01L512.01 528.019L496.004 528.053Z"/>
	<path fill="#C69EE5" transform="scale(0.42586 0.42586)" d="M416.024 336.016L415.996 320.026L447.998 320.039L448.007 336.417C446.32 335.77 444.243 336.024 442.457 336.014L432.069 335.988L416.024 336.016Z"/>
	<path fill="#0105BB" transform="scale(0.42586 0.42586)" d="M416.013 512.007L447.984 512.013L448.01 528.018L415.999 528.034L416.013 512.007Z"/>
	<path fill="#0105BB" transform="scale(0.42586 0.42586)" d="M416.009 656.527C418.707 655.081 458.031 655.99 464.392 655.974C463.062 660.489 464.003 667.183 464.018 671.975L416.014 672.006L416.009 656.527Z"/>
	<path fill="#C69EE5" transform="scale(0.42586 0.42586)" d="M544.008 560.023L592.009 559.995L591.99 576.001L575.997 575.987L544.011 576.022L544.008 560.023Z"/>
	<path fill="#010203" transform="scale(0.42586 0.42586)" d="M464.392 655.974L511.994 656.005L512.013 672.002L464.018 671.975C464.003 667.183 463.062 660.489 464.392 655.974Z"/>
	<path fill="#0105BB" transform="scale(0.42586 0.42586)" d="M528.327 527.962L543.998 528.008L544.008 560.023L544.011 576.022L527.984 576.052L527.968 528.103L528.327 527.962Z"/>
	<path fill="#0105BB" transform="scale(0.42586 0.42586)" d="M432.008 416.026L479.201 416.003L490.275 416.011C492.004 416.014 494.376 415.729 495.988 416.327L495.999 431.982L432.019 432.001L432.008 416.026Z"/>
	<path fill="#0105BB" transform="scale(0.42586 0.42586)" d="M624.003 720.175L624.007 704.023L640.054 704.005L640.007 720.061L639.998 736.002L592.018 735.928L592.013 720.019L624.003 720.175Z"/>
	<path fill="#0105BB" transform="scale(0.42586 0.42586)" d="M416.024 336.016L432.069 335.988L432.038 352.015L432.008 416.026L416.015 416.005L416.024 336.016Z"/>
	<path fill="#003CF9" transform="scale(0.42586 0.42586)" d="M432.014 623.99L447.998 623.994L448.014 640.017L464.033 639.973L464.003 651.612C464.002 653.019 463.752 654.685 464.392 655.974C458.031 655.99 418.707 655.081 416.009 656.527L415.497 655.994C416.169 654.556 415.974 652.978 415.988 651.426L416.065 640.008L415.999 624.003L432.014 623.99Z"/>
	<path fill="#010203" transform="scale(0.42586 0.42586)" d="M432.014 623.99L447.998 623.994L448.014 640.017L432.024 640.006L432.014 623.99Z"/>
	<path fill="#C69EE5" transform="scale(0.42586 0.42586)" d="M287.991 464.009L383.756 464.006C384.276 465.586 384.023 467.525 384.019 469.185L383.982 480.006L367.907 479.995L336.074 479.993L319.903 479.994L304.011 479.988L288.025 479.986L287.991 464.009Z"/>
	<path fill="#010203" transform="scale(0.42586 0.42586)" d="M575.982 400.023L591.986 400.002L592.002 415.83L592 432.025L512.008 432.007L512 416.006L514.217 415.939L573.582 415.918L575.25 415.99L575.998 415.25L575.982 400.023Z"/>
	<path fill="#010203" transform="scale(0.42586 0.42586)" d="M575.997 575.987L591.99 576.001L592.019 624.008L543.98 624L527.998 623.928L528 607.981L575.974 608.006L575.997 575.987Z"/>
	<path fill="#0105BB" transform="scale(0.42586 0.42586)" d="M367.907 479.995L383.982 480.006L383.993 512.008L399.985 512.01L400.037 528.011L400.03 544.04L367.946 544.056L367.907 479.995Z"/>
	<path fill="#0105BB" transform="scale(0.42586 0.42586)" d="M288.002 720.004L383.994 720.006L384.011 752.018L384.007 768.019L367.955 768.047L367.974 736.067L303.982 736.047L287.991 736.013L288.002 720.004Z"/>
	<path fill="#002E91" transform="scale(0.42586 0.42586)" d="M319.903 479.994L336.074 479.993L367.907 479.995L367.946 544.056L351.99 544.015L336.011 544.014L335.989 528.015L336.003 512L320.004 512.014L319.938 496.055L319.903 479.994Z"/>
	<path fill="#010203" transform="scale(0.42586 0.42586)" d="M335.989 528.015L351.998 527.993L351.99 544.015L336.011 544.014L335.989 528.015Z"/>
	<path fill="#0105BB" transform="scale(0.42586 0.42586)" d="M319.903 479.994L336.074 479.993L336.046 496.035L319.938 496.055L319.903 479.994Z"/>
	<path fill="#007CF7" transform="scale(0.42586 0.42586)" d="M526.418 384.102C527.639 383.792 527.102 384.079 528.032 383.25L527.986 367.998L543.983 368.023L544.013 384.015L559.982 384.023C559.987 386.578 559.333 398.483 560.552 399.868L562.082 400.086L575.982 400.023L575.998 415.25L575.25 415.99L573.582 415.918L514.217 415.939L512 416.006L496.121 416.076C495.502 410.947 495.963 405.195 495.996 399.994L496.06 384.064L512.026 384.024L526.418 384.102Z"/>
	<path fill="#06A0F6" transform="scale(0.42586 0.42586)" d="M562.082 400.086L575.982 400.023L575.998 415.25L575.25 415.99L573.582 415.918C572.198 415.28 570.516 415.509 569.012 415.507C565.937 415.501 562.903 415.498 559.837 415.206L560.041 400.75L562.082 400.086Z"/>
	<path fill="#06A0F6" transform="scale(0.42586 0.42586)" d="M496.06 384.064L512.026 384.024L526.418 384.102L527.851 385.092L528.168 415.332C524.05 415.375 518.075 414.696 514.217 415.939L512 416.006L496.121 416.076C495.502 410.947 495.963 405.195 495.996 399.994L496.06 384.064Z"/>
	<path fill="#010203" transform="scale(0.42586 0.42586)" d="M496.06 384.064L512.026 384.024L512.026 400.051L495.996 399.994L496.06 384.064Z"/>
	<path fill="#002E91" transform="scale(0.42586 0.42586)" d="M463.99 351.998L463.981 368.046L479.988 368.009L479.993 384.061L496.06 384.064L495.996 399.994C495.963 405.195 495.502 410.947 496.121 416.076L495.988 416.327C494.376 415.729 492.004 416.014 490.275 416.011L479.201 416.003L432.008 416.026L432.038 352.015L463.99 351.998Z"/>
	<path fill="#06A0F6" transform="scale(0.42586 0.42586)" d="M448.005 607.995L463.995 607.984L511.962 607.991L512 623.989L527.998 623.928L543.98 624L543.99 656.02L528.001 655.994L511.994 656.005L464.392 655.974C463.752 654.685 464.002 653.019 464.003 651.612L464.033 639.973L448.014 640.017L447.998 623.994L448.005 607.995Z"/>
	<path fill="#010203" transform="scale(0.42586 0.42586)" d="M448.005 607.995L463.995 607.984L464.015 623.997L447.998 623.994L448.005 607.995Z"/>
	<path fill="#7EC7E5" transform="scale(0.42586 0.42586)" d="M463.995 607.984L511.962 607.991L512 623.989L464.015 623.997L463.995 607.984Z"/>
	<path fill="#0105BB" transform="scale(0.42586 0.42586)" d="M447.998 320.039L448.01 288.023L543.993 288.007L544.002 336.008L576.103 336.004L576.035 352.05L543.986 352.027L528.04 351.994L527.993 304.014L464.098 304.019L464.04 336.707L463.99 351.998L432.038 352.015L432.069 335.988L442.457 336.014C444.243 336.024 446.32 335.77 448.007 336.417L447.998 320.039Z"/>
	<path fill="#002E91" transform="scale(0.42586 0.42586)" d="M464.04 336.707L464.098 304.019L527.993 304.014L528.04 351.994L543.986 352.027L543.983 368.023L527.986 367.998L528.032 383.25C527.102 384.079 527.639 383.792 526.418 384.102L512.026 384.024L496.06 384.064L479.993 384.061L479.988 368.009L463.981 368.046L463.99 351.998L464.04 336.707Z"/>
	<path fill="#0105BB" transform="scale(0.42586 0.42586)" d="M479.988 368.009L496.037 367.982L496.06 384.064L479.993 384.061L479.988 368.009Z"/>
	<path fill="#0105BB" transform="scale(0.42586 0.42586)" d="M463.99 351.998L480.025 351.931L479.988 368.009L463.981 368.046L463.99 351.998Z"/>
	<path fill="#010203" transform="scale(0.42586 0.42586)" d="M528.04 351.994L543.986 352.027L543.983 368.023L527.986 367.998L528.032 383.25C527.102 384.079 527.639 383.792 526.418 384.102L512.026 384.024L512.001 351.974L528.04 351.994Z"/>
	<path fill="#002E91" transform="scale(0.42586 0.42586)" d="M591.854 336.003L646.822 336.005C654.96 336.005 663.962 335.225 672.011 336.034L688.019 335.987L688.001 351.995L704.003 351.989L704.006 367.993L720.003 368.002L720.028 383.983L735.999 384.039L736.008 399.996L736.024 415.977L655.985 415.972L624.01 415.968L592.002 415.83L591.986 400.002L575.982 400.023L562.082 400.086L560.552 399.868C559.333 398.483 559.987 386.578 559.982 384.023L544.013 384.015L543.983 368.023L543.986 352.027L576.035 352.05L576.103 336.004L591.854 336.003Z"/>
	<path fill="#0105BB" transform="scale(0.42586 0.42586)" d="M720.028 383.983L735.999 384.039L736.008 399.996L720.002 400.013L720.028 383.983Z"/>
	<path fill="#0105BB" transform="scale(0.42586 0.42586)" d="M704.006 367.993L720.003 368.002L720.028 383.983L703.993 384.022L704.006 367.993Z"/>
	<path fill="#010203" transform="scale(0.42586 0.42586)" d="M559.982 384.023L575.986 384.003L575.982 400.023L562.082 400.086L560.552 399.868C559.333 398.483 559.987 386.578 559.982 384.023Z"/>
	<path fill="#010203" transform="scale(0.42586 0.42586)" d="M543.983 368.023L559.991 368L559.982 384.023L544.013 384.015L543.983 368.023Z"/>
	<path fill="#0105BB" transform="scale(0.42586 0.42586)" d="M688.001 351.995L704.003 351.989L704.006 367.993L687.987 368.026L688.001 351.995Z"/>
	<path fill="#0105BB" transform="scale(0.42586 0.42586)" d="M591.854 336.003L646.822 336.005C654.96 336.005 663.962 335.225 672.011 336.034L688.019 335.987L688.001 351.995L591.974 352.06L591.854 336.003Z"/>
	<path fill="#002E91" transform="scale(0.42586 0.42586)" d="M448.01 528.018L463.989 528.007L486.1 528.01C489.248 528.01 492.954 527.6 496.004 528.053L512.01 528.019L527.968 528.103L527.984 576.052L544.011 576.022L575.997 575.987L575.974 608.006L528 607.981L527.998 623.928L512 623.989L511.962 607.991L463.995 607.984L448.005 607.995L447.998 623.994L432.014 623.99L431.978 607.975L415.985 608.041L415.979 592.005L399.988 592.018L384.02 592.004L383.99 576.016L368.016 576.007L367.988 560.017L367.946 544.056L400.03 544.04L400.037 528.011L415.999 528.034L448.01 528.018Z"/>
	<path fill="#010203" transform="scale(0.42586 0.42586)" d="M383.99 576.016L399.986 575.997L399.988 592.018L384.02 592.004L383.99 576.016Z"/>
	<path fill="#17C2F6" transform="scale(0.42586 0.42586)" d="M431.978 607.975L448.005 607.995L447.998 623.994L432.014 623.99L431.978 607.975Z"/>
	<path fill="#010203" transform="scale(0.42586 0.42586)" d="M367.988 560.017L383.991 560L383.99 576.016L368.016 576.007L367.988 560.017Z"/>
	<path fill="#17C2F6" transform="scale(0.42586 0.42586)" d="M511.962 607.991L528 607.981L527.998 623.928L512 623.989L511.962 607.991Z"/>
	<path fill="#003CF9" transform="scale(0.42586 0.42586)" d="M592.002 415.83L624.01 415.968L655.985 415.972L656.013 431.99L672.014 431.981L672.01 447.995L672.131 463.666C676.851 464.805 683.104 464.02 688.009 463.996L688.024 479.986L704.006 479.997L704.035 495.988L720.007 495.999L720.027 511.988L736.007 512.001L736.014 720.058L719.999 720.001L719.998 735.99L719.98 751.999L719.966 768.043L672.054 768.047L655.978 768.041L656 751.996L639.96 752.051L639.998 736.002L640.007 720.061L640.054 704.005L640.02 687.927L640.013 672.018L671.63 672.007L671.933 671.878L671.999 624.02L688.006 624.006L688.02 608.005L672.01 608.01L672.096 466.716L672.088 464.014L592.009 464.016L592 432.025L592.002 415.83Z"/>
	<path fill="#010203" transform="scale(0.42586 0.42586)" d="M656.013 431.99L672.014 431.981L672.01 447.995L656.014 448.013L656.013 431.99Z"/>
	<path fill="#010203" transform="scale(0.42586 0.42586)" d="M624.01 415.968L655.985 415.972L656.013 431.99L624.016 432.013L624.01 415.968Z"/>
	<path fill="#002E91" transform="scale(0.42586 0.42586)" d="M671.63 672.007L671.933 671.878L687.995 672.006L687.994 688.006L703.997 688.005L703.995 704.005L720.01 704.005L719.999 720.001L719.998 735.99L719.98 751.999L719.966 768.043L672.054 768.047L655.978 768.041L656 751.996L639.96 752.051L639.998 736.002L640.007 720.061L640.054 704.005L640.02 687.927L640.013 672.018L671.63 672.007Z"/>
	<path fill="#0105BB" transform="scale(0.42586 0.42586)" d="M656 751.996L672.05 751.946L672.054 768.047L655.978 768.041L656 751.996Z"/>
	<path fill="#0105BB" transform="scale(0.42586 0.42586)" d="M703.995 704.005L720.01 704.005L719.999 720.001L703.975 720.049L703.995 704.005Z"/>
	<path fill="#0105BB" transform="scale(0.42586 0.42586)" d="M687.994 688.006L703.997 688.005L703.995 704.005L687.98 704.061L687.994 688.006Z"/>
	<path fill="#0105BB" transform="scale(0.42586 0.42586)" d="M639.998 736.002L656.05 735.936L656 751.996L639.96 752.051L639.998 736.002Z"/>
	<path fill="#0105BB" transform="scale(0.42586 0.42586)" d="M671.63 672.007L671.933 671.878L687.995 672.006L687.994 688.006L671.969 688.027L640.02 687.927L640.013 672.018L671.63 672.007Z"/>
</svg>
